<svg width="345" height="105" viewBox="0 0 345 105" fill="none" xmlns="http://www.w3.org/2000/svg">
<rect x="-3" y="3" width="230" height="99" rx="5.5177" transform="matrix(-1 0 0 1 339 0)" stroke="white" stroke-width="6"/>
<path d="M0 14.5833C0 6.52919 6.55254 0 14.6355 0H78.3285C86.4115 0 92.9641 6.52918 92.9641 14.5833V90.4166C92.9641 98.4708 86.4115 105 78.3286 105H14.6355C6.55255 105 0 98.4708 0 90.4167V14.5833Z" fill="white"/>
<path d="M34.301 62.4425H46.0685L58.8841 87.5076H75.1775L60.6944 60.3062C68.6029 57.2206 73.1765 49.6251 73.1765 40.8428C73.1765 27.3133 63.8864 19.0058 48.784 19.0058H19.9132V87.5076H34.301V62.4425ZM34.301 30.2091H46.7831C53.9293 30.2091 58.4076 34.3866 58.4076 41.0327C58.4076 47.8212 54.1675 51.7613 46.926 51.7613H34.301V30.2091Z" fill="#3B5998"/>
<path d="M161.038 70.6493C158.894 75.1591 154.416 77.5802 147.794 77.5802C139.075 77.5802 133.406 71.1715 132.977 61.06V60.6802H169.9V57.5471C169.9 41.6441 161.467 31.8174 147.603 31.8174C133.501 31.8174 124.45 42.2612 124.45 58.3541C124.45 74.542 133.358 84.7959 147.603 84.7959C158.847 84.7959 166.851 79.3841 169.233 70.6493H161.038ZM147.508 39.0331C155.655 39.0331 161.086 45.0145 161.276 54.0817H132.977C133.597 45.0145 139.314 39.0331 147.508 39.0331Z" fill="white"/>
<path d="M178.86 83.8939H187.054V53.6069C187.054 44.6348 192.343 39.1755 200.537 39.1755C208.731 39.1755 212.638 43.5429 212.638 52.7524V83.8939H220.832V50.7586C220.832 38.6059 214.401 31.8174 202.871 31.8174C195.011 31.8174 190.008 35.1404 187.436 40.7896H186.673V32.7194H178.86V83.8939Z" fill="white"/>
<path d="M235.367 19.4747V32.7194H227.077V39.5553H235.367V70.6018C235.367 80.381 239.607 84.2737 250.183 84.2737C251.803 84.2737 253.375 84.0838 254.995 83.799V76.9156C253.471 77.058 252.661 77.1055 251.184 77.1055C245.848 77.1055 243.561 74.542 243.561 68.5131V39.5553H254.995V32.7194H243.561V19.4747H235.367Z" fill="white"/>
<path d="M283.822 84.7959C298.448 84.7959 307.5 74.7319 307.5 58.3066C307.5 41.8339 298.448 31.8174 283.822 31.8174C269.196 31.8174 260.144 41.8339 260.144 58.3066C260.144 74.7319 269.196 84.7959 283.822 84.7959ZM283.822 77.4378C274.103 77.4378 268.624 70.412 268.624 58.3066C268.624 46.1539 274.103 39.1755 283.822 39.1755C293.541 39.1755 299.02 46.1539 299.02 58.3066C299.02 70.412 293.541 77.4378 283.822 77.4378Z" fill="white"/>
<path d="M330 75C330 79.4183 326.418 83 322 83C317.582 83 314 79.4183 314 75C314 70.5817 317.582 67 322 67C326.418 67 330 70.5817 330 75Z" fill="#FA4A0C"/>
</svg>
